# xmcd
#
# Track frame offsets:
#	150
#	15697
#	35287
#	48935
#	63537
#	80762
#	96675
#	118385
#	135662
#	154487
#	172387
#	186187
#	205487
#	223310
#	243650
#	257362
#	278262
#	294975
#	312037
#	325737
#
# Disc length: 4515 seconds
#
# Revision: 1
# Processed by: cddbd v1.5.2PL0 Copyright (c) Steve Scherf et al.
# Submitted via: EZCDAudioConverter 6.0.2.1
#
DISCID=3611a114
DTITLE=Oak Ridge Boys - Legendary Hits
DYEAR=1995
DGENRE=Country
TTITLE0=Little Things
TTITLE1=Class Reunion
TTITLE2=Ophelia
TTITLE3=Step On Out
TTITLE4=When You Get To The Heart (with Barbara Mandell)
TTITLE5=Juliet
TTITLE6=Seasons
TTITLE7=You Made A Rock Of A Rolling Stone
TTITLE8=What Are You Doing In My Dream
TTITLE9=It Takes A Little Rain (To Make Love Grow)
TTITLE10=This Crazy Love
TTITLE11=Take A Step (Yesterday Waltz)
TTITLE12=True Heart
TTITLE13=Where The Fast Lane Ends
TTITLE14=Gonna Take A Lot Of River
TTITLE15=The American Dream
TTITLE16=Baby, You'll Be My Baby
TTITLE17=Bed Of Roses
TTITLE18=An American Family
TTITLE19=No Matter How High
EXTD=
EXTT0=
EXTT1=
EXTT2=
EXTT3=
EXTT4=
EXTT5=
EXTT6=
EXTT7=
EXTT8=
EXTT9=
EXTT10=
EXTT11=
EXTT12=
EXTT13=
EXTT14=
EXTT15=
EXTT16=
EXTT17=
EXTT18=
EXTT19=
PLAYORDER=
